<svg xmlns="http://www.w3.org/2000/svg" width="525" height="193" fill="none"><path fill="#f6f6f6" d="M256.2 143.89c-1.54 0-2.76-.4-3.66-1.22a5.6 5.6 0 0 1-1.63-3.26L236.14 52.8c-.1-.28-.14-.6-.14-.95 0-.73.27-1.36.81-1.9a2.85 2.85 0 0 1 2.04-.95h16.8c2.54 0 3.94 1 4.2 2.98l8.82 52.87 9.76-31.18c1-2.44 2.48-3.66 4.47-3.66h9.76q3.39 0 4.47 3.66l9.76 31.18 8.81-52.87c.28-1.99 1.68-2.98 4.2-2.98h16.82c.8 0 1.49.32 2.03.95.63.54.95 1.17.95 1.9l-.14.95-14.77 86.61a5.3 5.3 0 0 1-1.77 3.26 5.06 5.06 0 0 1-3.52 1.22h-12.88a4.93 4.93 0 0 1-3.39-1.09 6.5 6.5 0 0 1-1.76-2.44l-13.69-38.77-13.69 38.77c-.81 2.35-2.48 3.53-5.01 3.53zm100.86 0a3.6 3.6 0 0 1-2.44-.95 3.6 3.6 0 0 1-.95-2.44V52.39c0-1 .31-1.8.95-2.44a3.6 3.6 0 0 1 2.44-.95h36.87c11.83 0 21.05 2.71 27.65 8.13 6.69 5.34 10.03 12.93 10.03 22.78 0 6.32-1.49 11.7-4.47 16.13a28.57 28.57 0 0 1-12.34 10.16l18.57 33.35c.27.54.41 1.04.41 1.5 0 .71-.32 1.4-.95 2.02a2.6 2.6 0 0 1-1.9.82H412.9a5.66 5.66 0 0 1-5.55-3.66l-15.46-29.82h-13.82v30.09c0 1-.36 1.8-1.09 2.44a3.3 3.3 0 0 1-2.44.95zm36.6-52.73c4.15 0 7.32-1 9.48-2.99 2.17-2.07 3.26-4.92 3.26-8.53 0-3.62-1.09-6.47-3.25-8.54-2.08-2.17-5.25-3.26-9.5-3.26h-15.58v23.32zm77.81 52.73a3.6 3.6 0 0 1-2.44-.95 3.6 3.6 0 0 1-.95-2.44v-29.14l-31.44-58.02a7.5 7.5 0 0 1-.41-1.5c0-.72.27-1.35.81-1.9a3 3 0 0 1 2.17-.94h16.94c1.81 0 3.4.95 4.75 2.85l19.38 34.97 19.52-34.97a5.17 5.17 0 0 1 4.75-2.85h16.94c.81 0 1.5.32 2.03.95.55.54.82 1.17.82 1.9 0 .45-.1.95-.27 1.49l-31.45 58.02v29.14c0 1-.36 1.8-1.09 2.44a3.3 3.3 0 0 1-2.44.95z"/><path fill="#ffc131" d="M119.04 69.86a18.3 18.3 0 1 1-36.6 0 18.3 18.3 0 0 1 36.6 0"/><circle cx="69.97" cy="122.25" r="18.3" fill="#ffc131" transform="rotate(180 69.97 122.25)"/><path fill="#ffc131" fill-rule="evenodd" d="M138.66 128.53a69.9 69.9 0 0 1-24.1 9.8 49 49 0 0 0 2.33-22.12 49.08 49.08 0 1 0-56.04-74.96 81.5 81.5 0 0 0-26.78 7.78 69.86 69.86 0 1 1 104.6 79.5zM34.9 61.77l17.12 2.1c.41-3.32 1.15-6.57 2.21-9.7a69.9 69.9 0 0 0-19.33 7.6" clip-rule="evenodd"/><path fill="#ffc131" fill-rule="evenodd" d="M31.94 63.58a69.9 69.9 0 0 1 24.3-9.85 49 49 0 0 0-2.74 22.23 49.09 49.09 0 1 0 56.26 74.88 81.5 81.5 0 0 0 26.8-7.83A69.86 69.86 0 1 1 31.94 63.58m84.44 74.33" clip-rule="evenodd"/></svg>