<svg xmlns="http://www.w3.org/2000/svg" version="1.1" viewBox="-5 -5 110 110" fill="currentColor">
 <g>
  <path d="m78.18 51.359c-0.96875-7.7617-7.1406-13.93-14.898-14.898-0.03125 1.1719-0.98047 2.1016-2.1484 2.1016-1.1719 0-2.1211-0.92969-2.1602-2.1016-7.7617 0.96875-13.91 7.1406-14.898 14.898 1.1719 0.03125 2.1016 0.98047 2.1016 2.1484 0 1.1719-0.92969 2.1289-2.1016 2.1602 0.98047 7.7617 7.1406 13.91 14.898 14.898 0.039063-1.1719 0.98047-2.1016 2.1602-2.1016 1.1797 0 2.1211 0.92969 2.1484 2.1016 7.7617-0.98047 13.93-7.1406 14.898-14.898-1.1602-0.03125-2.1016-0.98047-2.1016-2.1602 0-1.1797 0.94141-2.1211 2.1016-2.1484zm-7.6797 3.7695h-7.6211c-0.42969 0.48047-1.0586 0.78125-1.75 0.78125-1.3281 0-2.3984-1.0703-2.3984-2.3984 0-0.69141 0.30078-1.3203 0.78125-1.75v-7.6211c0-0.89844 0.71875-1.6211 1.6211-1.6211 0.89844 0 1.6211 0.71875 1.6211 1.6211v7.6211l0.12891 0.12891h7.6211c0.89844 0 1.6211 0.71875 1.6211 1.6211 0 0.89844-0.71875 1.6211-1.6211 1.6211z"/>
  <path d="m63.301 24.73v-2.8008h3.0391c1.1992 0 2.1602-0.96094 2.1602-2.1602s-0.96094-2.1602-2.1602-2.1602h-10.398c-1.1992 0-2.1602 0.96875-2.1602 2.1602 0 1.1914 0.96094 2.1602 2.1602 2.1602h3.0391v2.8008c-3.5898 0.26953-7.0117 1.1914-10.109 2.6602h-24.41c-1.1914 0-2.1602 0.96094-2.1602 2.1602s0.96875 2.1602 2.1602 2.1602h17.781c-2.5 2.1602-4.6211 4.75-6.2617 7.6406h-5.3281c-1.1914 0-2.1602 0.96875-2.1602 2.1602 0 1.1914 0.96875 2.1602 2.1602 2.1602h3.3398c-1.1094 3.0703-1.7305 6.3789-1.7305 9.8281s0.62109 6.7617 1.7305 9.8281h-11.91c-1.1992 0-2.1602 0.96875-2.1602 2.1602 0 1.1914 0.96094 2.1602 2.1602 2.1602h13.898c1.6406 2.8984 3.7617 5.4883 6.2617 7.6484h-7.4414c-1.1914 0-2.1602 0.96875-2.1602 2.1602 0 1.1914 0.96875 2.1602 2.1602 2.1602h14.07c3.7305 1.7617 7.8789 2.75 12.27 2.75 15.91 0 28.871-12.949 28.871-28.879 0-15.93-11.801-27.672-26.699-28.781zm19.359 28.82c-0.019531 11.84-9.6406 21.461-21.48 21.488h-0.089844c-11.84-0.03125-21.461-9.6484-21.48-21.488 0-0.011719-0.011719-0.019531-0.011719-0.039062 0-0.011719 0.011719-0.019531 0.011719-0.039063 0.019531-11.828 9.6406-21.461 21.48-21.48h0.089844c11.84 0.019531 21.461 9.6484 21.48 21.48v0.089844z"/>
  <path d="m24.301 43.691c1.1914 0 2.1602-0.96875 2.1602-2.1602s-0.96875-2.1602-2.1602-2.1602h-6.0508c-1.1914 0-2.1602 0.96875-2.1602 2.1602s0.96875 2.1602 2.1602 2.1602z"/>
  <path d="m10 53.52c0 1.1914 0.96875 2.1602 2.1602 2.1602h14.691c1.1914 0 2.1602-0.96875 2.1602-2.1602 0-1.1914-0.96875-2.1602-2.1602-2.1602h-14.691c-1.1914 0-2.1602 0.96875-2.1602 2.1602z"/>
  <path d="m29.051 75.32h-9.3008c-1.1914 0-2.1602 0.96875-2.1602 2.1602 0 1.1914 0.96875 2.1602 2.1602 2.1602h9.3008c1.1914 0 2.1602-0.96875 2.1602-2.1602 0-1.1914-0.96875-2.1602-2.1602-2.1602z"/>
 </g>
</svg>
