<svg xmlns="http://www.w3.org/2000/svg" version="1.1" viewBox="-5 -5 110 110" fill="currentColor">
 <path d="m13.34 81.277 0.10938 0.5625h-7.5898v-22.102h6.8711c-0.69922 1.9688-1.0781 4.3125-1.1211 7.0508-0.070313 5.0898 0.97266 10.523 1.7305 14.488zm19.789-70.051c2.9492 0.042969 5.4609 0.46875 7.5078 1.2734l0.003906-6.7188h-22.102v7.2031l0.10156-0.019531c3.9688-0.76172 9.3984-1.8047 14.488-1.7383zm-15.258 27.172 7.1094 0.86328h7.9883c0.55859 0 1.0117 0.44922 1.0117 1.0039s-0.44922 1.0039-1.0117 1.0039h-6.9883c0.41016 4.9258 3.2383 5.1758 11.121 5.1758 3.6992 0 6.1406-3.6836 6.1406-5.1758 0-0.55469 0.44922-1.0039 1.0117-1.0039h7.5898c-0.41797-0.93359-0.67969-1.9688-0.67969-3.082 0-4.4727 0.070313-7.3438 1.0508-9.4883 1.0391-2.2852 2.9805-3.4297 6.25-3.6562l0.71094-5.8789h-14.188c-0.35156 0-0.66797-0.17969-0.85938-0.47266-4.2188-6.7656-17.809-4.1523-25.109-2.75l-0.60938 0.11719c-3.2109 0.61328-4.5117 1.0469-4.5117 2.875v0.79687h9.8906c0.55859 0 1.0117 0.44922 1.0117 1.0039 0 0.55469-0.44922 1.0039-1.0117 1.0039h-9.8906v4.2695h9.8906c0.55859 0 1.0117 0.44922 1.0117 1.0039 0 0.55469-0.44922 1.0039-1.0117 1.0039h-9.8906v4.2695h9.8906c0.55859 0 1.0117 0.44922 1.0117 1.0039 0 0.55469-0.44922 1.0039-1.0117 1.0039h-9.8906v1.9023c0 1.6836 0.66016 2.8047 3.9727 3.207zm23.777 28.551v6.9922c4.9297-0.41016 5.1797-3.2383 5.1797-11.121 0-3.6953-3.6914-6.1445-5.1797-6.1445-0.55859 0-1.0117-0.44922-1.0117-1.0039v-8.1094c-1.0508 0.55078-2.2383 0.89453-3.5391 0.89453-4.4688 0-7.3516-0.070312-9.4883-1.0469-2.2812-1.0391-3.4297-2.9844-3.6484-6.25l-5.4219-0.65625v14.426c0 0.34766-0.17969 0.66797-0.46875 0.85156-6.7695 4.2266-4.1602 17.812-2.75 25.113l0.12109 0.60938c0.60938 3.207 1.0391 4.5117 2.8711 4.5117h0.80078v-9.8945c0-0.55469 0.44922-1.0039 1-1.0039 0.55859 0 1.0117 0.44922 1.0117 1.0039v9.8945h4.2695v-9.8945c0-0.55469 0.44922-1.0039 1-1.0039 0.55859 0 1.0117 0.44922 1.0117 1.0039v9.8945h4.2695v-9.8945c0-0.55469 0.44922-1.0039 1-1.0039 0.55859 0 1.0117 0.44922 1.0117 1.0039v9.8945h1.8984c1.668 0 2.7891-0.66406 3.1992-3.9766l0.85938-7.1094v-7.9883c0-0.55469 0.44922-1.0039 1-1.0039 0.55469 0.003906 1.0039 0.45703 1.0039 1.0117zm42.91-48.457c-0.60938-3.207-1.0391-4.5156-2.8711-4.5156h-0.80078v9.8945c0 0.55469-0.44922 1.0039-1 1.0039-0.55859 0-1.0117-0.44922-1.0117-1.0039v-9.8945h-4.2695v9.8945c0 0.55469-0.44922 1.0039-1 1.0039-0.55859 0-1.0117-0.44922-1.0117-1.0039v-9.8945h-4.2695v9.8945c0 0.55469-0.44922 1.0039-1 1.0039-0.55859 0-1.0117-0.44922-1.0117-1.0039v-9.8945h-1.8984c-1.6797 0-2.8008 0.66406-3.1992 3.9766l-0.85938 7.1094v7.9844c0 0.55469-0.44922 1.0039-1 1.0039-0.55859 0-1.0117-0.44922-1.0117-1.0039v-6.9922c-4.9297 0.41016-5.1797 3.2383-5.1797 11.121 0 3.6953 3.6914 6.1445 5.1797 6.1445 0.55859 0 1 0.44922 1 1.0078v8.1055c1.0586-0.55078 2.25-0.89453 3.5508-0.89453 4.4688 0 7.3398 0.070313 9.4883 1.0469 2.2812 1.0391 3.4297 2.9844 3.6484 6.25l5.418 0.65625 0.011719-14.422c0-0.34766 0.17969-0.66797 0.46875-0.85156 6.7695-4.2266 4.1484-17.816 2.75-25.117zm1.9922-0.33203 0.10156 0.5625c0.76953 3.9648 1.8086 9.3984 1.7422 14.488-0.039062 2.7422-0.42188 5.082-1.1211 7.0547h6.8711l-0.003906-22.105zm-19.18 70.617c-0.17188 0-0.33984 0-0.5-0.003906-2.9492-0.042969-5.4609-0.46875-7.5195-1.2734v6.7227l22.109-0.003906v-7.2031l-0.10156 0.019531c-3.8398 0.73828-9.0508 1.7422-13.988 1.7422zm14.75-27.176-7.1016-0.86328h-7.9883c-0.55859 0-1.0117-0.44922-1.0117-1.0039s0.44922-1.0039 1.0117-1.0039h6.9922c-0.41016-4.9297-3.2383-5.1797-11.121-5.1797-3.6992 0-6.1484 3.6836-6.1484 5.1797 0 0.55469-0.44141 1.0039-1 1.0039h-7.5898c0.42188 0.93359 0.67969 1.9688 0.67969 3.082 0 4.4727-0.070312 7.3438-1.0508 9.4883-1.0391 2.2852-2.9805 3.4336-6.25 3.6562l-0.71094 5.8789h14.18c0.35156 0 0.67188 0.17969 0.85156 0.47266 4.2305 6.7656 17.82 4.1523 25.121 2.7461l0.60938-0.11719c3.2109-0.61328 4.5117-1.0469 4.5117-2.875v-0.79688l-9.8945 0.003907c-0.55859 0-1.0117-0.44922-1.0117-1.0039 0-0.55469 0.44922-1.0039 1.0117-1.0039h9.8906v-4.2695l-9.8906-0.003906c-0.55859 0-1.0117-0.44922-1.0117-1.0039 0-0.55469 0.44922-1.0039 1.0117-1.0039h9.8906v-4.2695h-9.8906c-0.55859 0-1.0117-0.44922-1.0117-1.0039 0-0.55469 0.44922-1.0039 1.0117-1.0039h9.8906v-1.9023c0-1.6797-0.66016-2.8008-3.9805-3.2031z"/>
</svg>
