<svg xmlns="http://www.w3.org/2000/svg" version="1.1" x="0px" y="0px" viewBox="0 0 100 100" fill="currentColor">
  <path d="M92.438,39.749c0-4.659-1.813-9.038-5.105-12.33L76.82,16.908c-3.275-3.276-7.605-5.08-12.19-5.08l-0.183,0.001  c-4.681,0.034-9.122,1.917-12.504,5.305L50,19.077l-2.169-2.169c-3.293-3.294-7.672-5.108-12.33-5.108  c-4.659,0-9.038,1.814-12.33,5.108L12.66,27.418c-6.798,6.799-6.798,17.862,0,24.66l6.252,6.255  c0.071,2.288,1.053,4.421,2.796,6.047c1.416,1.319,3.231,2.188,5.083,2.449c0.318,1.758,1.149,3.962,2.654,5.343  c1.252,1.238,2.887,2.033,4.667,2.283c0.355,1.894,1.322,3.727,2.629,4.929c1.139,1.044,3.198,2.33,5.473,2.764  c0.885,2.925,2.548,4.762,5.074,5.608c0.501,0.166,1.532,0.445,2.792,0.445c2.019,0,3.886-0.71,5.446-2.099  c0.131-0.133,0.363-0.351,0.664-0.632l0.079-0.075c3.423-3.204,5.378-5.325,6.465-7.038c0.724,0.185,1.482,0.28,2.233,0.28  c1.631,0,3.061-0.439,4.104-1.248c1.836-1.313,2.91-3.296,3.038-5.547c1.915-0.127,3.875-0.949,5.107-2.166  c1.322-1.304,2.138-3.301,2.189-5.225c1.677-0.131,3.787-0.725,5.534-2.572c2.536-2.675,1.89-6.415,1.179-7.81  c-0.062-0.118-0.133-0.238-0.215-0.346c-0.032-0.043-0.065-0.085-0.098-0.122l1.524-1.524  C90.624,48.786,92.438,44.407,92.438,39.749z M81.674,58.785c-0.751,0.793-1.801,1.195-3.12,1.195c-0.317,0-0.643-0.023-0.97-0.07  L61.949,44.136c-0.845-0.854-2.33-0.861-3.183-0.015c-0.88,0.872-0.888,2.299-0.016,3.183l15.95,16.093  c0.477,0.835,0.054,2.388-0.646,3.075c-0.727,0.718-2.57,1.169-3.399,0.697l-16.12-16.521c-0.837-0.86-2.318-0.881-3.185-0.037  c-0.886,0.866-0.903,2.293-0.038,3.181l16.159,16.56c0.302,1.109,0.169,2.53-1.089,3.432c-0.214,0.165-0.707,0.342-1.448,0.342  c-0.462,0-0.925-0.069-1.326-0.196c-0.248-1.15-0.784-2.853-1.914-4.235c-1.024-1.253-2.951-2.516-5.12-2.751  c-0.083-1.877-0.769-3.543-2.013-4.865c-2.01-2.14-4.04-2.752-5.516-2.85c-0.16-1.368-0.732-3.049-2.296-4.592  c-1.401-1.385-3.303-2.066-5.468-2.049c-0.04-1.905-0.758-3.712-2.079-5.183c-1.875-2.088-3.965-2.541-5.38-2.552l-0.107,0  c-1.859,0-3.712,0.756-4.799,1.935l-7.714,7.479l-5.365-5.366c-5.043-5.044-5.043-13.252,0-18.297L26.35,20.09  c2.446-2.444,5.695-3.791,9.15-3.791c3.456,0,6.705,1.346,9.148,3.79l2.166,2.166c-2.737,2.717-12.285,12.203-13.256,13.307  c-0.756,0.861-1.092,1.921-0.971,3.066c0.171,1.61,1.255,3.199,3.134,4.595c2.2,1.633,4.761,2.496,7.407,2.496  c3.24,0,6.431-1.312,8.984-3.692c1.733-1.614,5.619-5.41,8.194-7.937l21.852,22.213C82.265,56.769,82.442,57.977,81.674,58.785z   M52.435,82.837c-0.651,0.577-1.441,0.87-2.347,0.87c-0.65,0-1.176-0.153-1.374-0.22c-0.8-0.268-1.625-0.71-2.217-2.778l8.813-9.179  c0.167-0.079,0.356-0.118,0.576-0.118c0.905,0,1.951,0.667,2.329,1.13c0.724,0.884,0.995,2.229,1.078,2.765  c-0.177,0.51-1.136,2.156-6.099,6.806C52.789,82.491,52.479,82.785,52.435,82.837z M32.135,49.931  c0.187-0.202,0.863-0.578,1.651-0.58c0.762,0.008,1.44,0.354,2.072,1.058c1.333,1.485,0.931,3.05,0.677,3.688l-8.604,8.312  c-1.092-0.002-2.27-0.493-3.15-1.314c-0.48-0.45-1.253-1.373-1.357-2.714L32.135,49.931z M39.611,57.382  c0.396-0.125,1.1-0.306,1.86-0.306c0.899,0,1.612,0.254,2.12,0.756c1.123,1.109,1.081,2.327,0.948,2.975l-9.232,9.225  c-1.044-0.014-2.038-0.41-2.757-1.115c-0.732-0.673-1.289-2.224-1.392-3.371L39.611,57.382z M47.877,63.835  c0.148-0.06,0.404-0.136,0.736-0.136c0.854,0,1.778,0.503,2.674,1.456c1.061,1.129,0.829,2.689,0.651,3.389l-8.825,9.191  c-1.108-0.196-2.442-0.854-3.33-1.669c-0.675-0.619-1.214-1.83-1.299-2.849L47.877,63.835z M82.654,50.393L61.939,29.333  c-0.414-0.423-0.993-0.668-1.588-0.673h-0.009c-0.584,0-1.178,0.242-1.639,0.696c-1.219,1.199-7.411,7.283-9.66,9.378  c-1.706,1.591-3.811,2.468-5.926,2.468c-1.683,0-3.313-0.55-4.715-1.592c-0.765-0.567-1.126-1.036-1.269-1.287  c1.577-1.636,11.383-11.427,17.992-18.009c2.541-2.544,5.862-3.959,9.356-3.984l0.143-0.001c3.386,0,6.586,1.336,9.013,3.762  L84.15,30.601c2.443,2.443,3.789,5.691,3.789,9.148c0,3.458-1.346,6.706-3.789,9.148L82.654,50.393z"/>
</svg>
