<svg xmlns="http://www.w3.org/2000/svg" version="1.1" viewBox="-5 -5 110 110" fill="currentColor">
 <path d="m59.117 15.652c-2.4609-1-4.8477-2.1914-7.1172-3.5781l-2-1.1914-2 1.1914c-2.2695 1.3828-4.6523 2.5781-7.1172 3.5781-6.7305 2.6914-13.922 3.9219-21.461 3.5781l-4-0.19141v21.152c0 21.27 13.383 40.539 33.27 48l1.3477 0.5 1.3477-0.5c19.883-7.4609 33.27-26.77 33.27-48v-21.152l-4 0.19141c-7.5391 0.34766-14.77-0.84766-21.461-3.5781zm17.805 24.578c0 17.578-10.77 33.578-26.922 40.27-16.152-6.6914-26.922-22.691-26.922-40.27v-13.27c7.1914-0.15234 14.117-1.5391 20.652-4.1523 2.1523-0.84766 4.2305-1.8477 6.2695-2.9609 2.0391 1.1172 4.1172 2.1172 6.2695 2.9609 6.5391 2.6172 13.461 4.0391 20.652 4.1523z"/>
 <path d="m37.348 43.422-5.4648 5.4609 14.27 14.234 21.965-21.926-5.4648-5.4609-16.5 16.539z"/>
<text x="0.0" y="117.5" font-size="5.0" font-weight="bold" font-family="Arbeit Regular, Helvetica, Arial-Unicode, Arial, Sans-serif" fill="#000000">Created by Pandu Bramantyo</text><text x="0.0" y="122.5" font-size="5.0" font-weight="bold" font-family="Arbeit Regular, Helvetica, Arial-Unicode, Arial, Sans-serif" fill="#000000">from Noun Project</text></svg>